<svg width="40" height="41" viewBox="0 0 40 41" fill="none" xmlns="http://www.w3.org/2000/svg">
<circle cx="20" cy="20.1602" r="20" fill="#6100FF"/>
<path d="M15.802 10.1562H24.202C27.402 10.1562 30.002 12.7563 30.002 15.9563V24.3563C30.002 25.8945 29.3909 27.3698 28.3032 28.4575C27.2155 29.5452 25.7402 30.1563 24.202 30.1563H15.802C12.602 30.1563 10.002 27.5563 10.002 24.3563V15.9563C10.002 14.418 10.613 12.9427 11.7007 11.855C12.7884 10.7673 14.2637 10.1563 15.802 10.1562ZM15.602 12.1563C14.6472 12.1563 13.7315 12.5355 13.0564 13.2107C12.3812 13.8858 12.002 14.8015 12.002 15.7563V24.5563C12.002 26.5463 13.612 28.1563 15.602 28.1563H24.402C25.3567 28.1563 26.2724 27.777 26.9475 27.1018C27.6227 26.4267 28.002 25.511 28.002 24.5563V15.7563C28.002 13.7663 26.392 12.1563 24.402 12.1563H15.602ZM25.252 13.6563C25.5835 13.6563 25.9014 13.7879 26.1358 14.0224C26.3703 14.2568 26.502 14.5747 26.502 14.9063C26.502 15.2378 26.3703 15.5557 26.1358 15.7901C25.9014 16.0246 25.5835 16.1563 25.252 16.1563C24.9204 16.1563 24.6025 16.0246 24.3681 15.7901C24.1336 15.5557 24.002 15.2378 24.002 14.9063C24.002 14.5747 24.1336 14.2568 24.3681 14.0224C24.6025 13.7879 24.9204 13.6563 25.252 13.6563ZM20.002 15.1563C21.328 15.1563 22.5998 15.683 23.5375 16.6207C24.4752 17.5584 25.002 18.8302 25.002 20.1563C25.002 21.4823 24.4752 22.7541 23.5375 23.6918C22.5998 24.6295 21.328 25.1563 20.002 25.1563C18.6759 25.1563 17.4041 24.6295 16.4664 23.6918C15.5287 22.7541 15.002 21.4823 15.002 20.1563C15.002 18.8302 15.5287 17.5584 16.4664 16.6207C17.4041 15.683 18.6759 15.1563 20.002 15.1563ZM20.002 17.1563C19.2063 17.1563 18.4432 17.4723 17.8806 18.0349C17.318 18.5975 17.002 19.3606 17.002 20.1563C17.002 20.9519 17.318 21.715 17.8806 22.2776C18.4432 22.8402 19.2063 23.1563 20.002 23.1563C20.7976 23.1563 21.5607 22.8402 22.1233 22.2776C22.6859 21.715 23.002 20.9519 23.002 20.1563C23.002 19.3606 22.6859 18.5975 22.1233 18.0349C21.5607 17.4723 20.7976 17.1563 20.002 17.1563Z" fill="white"/>
</svg>
