<svg width="40" height="41" viewBox="0 0 40 41" fill="none" xmlns="http://www.w3.org/2000/svg">
<circle cx="20" cy="20.1602" r="20" fill="#6100FF"/>
<path d="M15.2463 11.5499C15.246 12.0508 15.0468 12.5311 14.6924 12.8852C14.338 13.2392 13.8575 13.438 13.3566 13.4377C12.8556 13.4375 12.3753 13.2382 12.0213 12.8838C11.6673 12.5294 11.4685 12.0489 11.4688 11.548C11.469 11.0471 11.6682 10.5667 12.0226 10.2127C12.377 9.85866 12.8575 9.65991 13.3585 9.66016C13.8594 9.66041 14.3397 9.85964 14.6938 10.214C15.0478 10.5684 15.2465 11.0489 15.2463 11.5499ZM15.303 14.8363H11.5254V26.6601H15.303V14.8363ZM21.2715 14.8363H17.5128V26.6601H21.2337V20.4554C21.2337 16.999 25.7384 16.6779 25.7384 20.4554V26.6601H29.4688V19.1711C29.4688 13.3442 22.8014 13.5614 21.2337 16.4229L21.2715 14.8363Z" fill="white"/>
</svg>
