<svg width="40" height="41" viewBox="0 0 40 41" fill="none" xmlns="http://www.w3.org/2000/svg">
<circle cx="20" cy="20.1602" r="20" fill="#6100FF"/>
<g clip-path="url(#clip0_3816_2976)">
<path d="M31.47 14.7922C31.3323 14.2835 31.0638 13.8197 30.6911 13.447C30.3185 13.0743 29.8547 12.8058 29.346 12.6681C27.4835 12.1602 19.9878 12.1602 19.9878 12.1602C19.9878 12.1602 12.4918 12.1755 10.6293 12.6835C10.1206 12.8212 9.65681 13.0897 9.28415 13.4624C8.9115 13.8351 8.64298 14.2989 8.50533 14.8077C7.94199 18.1168 7.72346 23.1593 8.5208 26.3361C8.65846 26.8448 8.92699 27.3086 9.29964 27.6813C9.6723 28.054 10.1361 28.3225 10.6448 28.4602C12.5072 28.9681 20.0031 28.9681 20.0031 28.9681C20.0031 28.9681 27.4989 28.9681 29.3612 28.4602C29.87 28.3225 30.3338 28.054 30.7064 27.6813C31.0791 27.3086 31.3477 26.8448 31.4853 26.3361C32.0795 23.0222 32.2626 17.9829 31.47 14.7922Z" fill="white"/>
<path d="M17.6016 24.1682L23.8198 20.5665L17.6016 16.9648V24.1682Z" fill="#6100FF"/>
</g>
<defs>
<clipPath id="clip0_3816_2976">
<rect width="24" height="16.875" fill="white" transform="translate(8 12.1602)"/>
</clipPath>
</defs>
</svg>
